<?xml version="1.0" encoding="UTF-8" standalone="no"?> <svg width="64" height="64" viewBox="0 0 64 64" fill="none" xmlns="http://www.w3.org/2000/svg">
<path d="M49.5599 12.3503H39.1999C38.8501 10.7 37.944 9.22005 36.6333 8.15807C35.3226 7.0961 33.6869 6.5166 31.9999 6.5166C30.313 6.5166 28.6773 7.0961 27.3666 8.15807C26.0559 9.22005 25.1498 10.7 24.7999 12.3503H14.4399C14.0421 12.3503 13.6606 12.5083 13.3793 12.7896C13.098 13.0709 12.9399 13.4525 12.9399 13.8503C12.9399 14.2481 13.098 14.6297 13.3793 14.911C13.6606 15.1923 14.0421 15.3503 14.4399 15.3503H15.1399C14.8811 15.9841 14.7617 16.6662 14.7899 17.3503L16.9999 52.8503C17.0262 54.0979 17.5423 55.285 18.4368 56.1551C19.3312 57.0253 20.5321 57.5085 21.7799 57.5003H42.2699C43.5101 57.5113 44.7052 57.0358 45.5988 56.1759C46.4924 55.3159 47.0134 54.14 47.0499 52.9003L49.2099 17.2703C49.23 16.6137 49.1143 15.9601 48.8699 15.3503H49.5599C49.9578 15.3503 50.3393 15.1923 50.6206 14.911C50.9019 14.6297 51.0599 14.2481 51.0599 13.8503C51.0599 13.4525 50.9019 13.0709 50.6206 12.7896C50.3393 12.5083 49.9578 12.3503 49.5599 12.3503V12.3503ZM31.9999 9.5003C32.8885 9.50157 33.7553 9.77556 34.4831 10.2852C35.211 10.7949 35.7649 11.5157 36.0699 12.3503H27.9299C28.235 11.5157 28.7889 10.7949 29.5167 10.2852C30.2446 9.77556 31.1114 9.50157 31.9999 9.5003ZM45.7099 15.8903C45.8728 16.0525 46.001 16.246 46.087 16.4591C46.1729 16.6722 46.2147 16.9005 46.2099 17.1303L44.0499 52.7703C44.042 53.2353 43.8504 53.6784 43.5169 54.0025C43.1833 54.3267 42.735 54.5056 42.2699 54.5003H21.7299C21.2657 54.4898 20.8242 54.2973 20.5006 53.9644C20.177 53.6314 19.9972 53.1846 19.9999 52.7203L17.7899 17.1803C17.7806 16.9425 17.8202 16.7054 17.9062 16.4835C17.9922 16.2616 18.1228 16.0597 18.2899 15.8903C18.4555 15.7181 18.6544 15.5815 18.8744 15.4887C19.0945 15.3958 19.3311 15.3487 19.5699 15.3503H44.4299C44.6688 15.3487 44.9054 15.3958 45.1255 15.4887C45.3455 15.5815 45.5444 15.7181 45.7099 15.8903V15.8903Z" fill="url(#paint0_linear_206_9279)"/>
<path d="M26.1099 27C25.712 27 25.3305 27.158 25.0492 27.4393C24.7679 27.7206 24.6099 28.1022 24.6099 28.5V47.17C24.6099 47.5678 24.7679 47.9494 25.0492 48.2307C25.3305 48.512 25.712 48.67 26.1099 48.67C26.5077 48.67 26.8892 48.512 27.1705 48.2307C27.4518 47.9494 27.6099 47.5678 27.6099 47.17V28.51C27.6112 28.3122 27.5734 28.116 27.4986 27.9329C27.4238 27.7498 27.3135 27.5832 27.1741 27.4429C27.0347 27.3025 26.8689 27.1911 26.6862 27.1151C26.5036 27.0391 26.3077 27 26.1099 27V27Z" fill="url(#paint1_linear_206_9279)"/>
<path d="M32 27C31.6022 27 31.2206 27.158 30.9393 27.4393C30.658 27.7206 30.5 28.1022 30.5 28.5V47.17C30.5 47.5678 30.658 47.9494 30.9393 48.2307C31.2206 48.512 31.6022 48.67 32 48.67C32.3978 48.67 32.7794 48.512 33.0607 48.2307C33.342 47.9494 33.5 47.5678 33.5 47.17V28.51C33.5013 28.3122 33.4635 28.116 33.3887 27.9329C33.3139 27.7498 33.2036 27.5832 33.0642 27.4429C32.9248 27.3025 32.759 27.1911 32.5763 27.1151C32.3937 27.0391 32.1978 27 32 27V27Z" fill="url(#paint2_linear_206_9279)"/>
<path d="M36.3901 28.5107V47.1707C36.3901 47.5686 36.5482 47.9501 36.8295 48.2314C37.1108 48.5127 37.4923 48.6707 37.8901 48.6707C38.288 48.6707 38.6695 48.5127 38.9508 48.2314C39.2321 47.9501 39.3901 47.5686 39.3901 47.1707V28.5107C39.3901 28.1129 39.2321 27.7314 38.9508 27.4501C38.6695 27.1688 38.288 27.0107 37.8901 27.0107C37.4923 27.0107 37.1108 27.1688 36.8295 27.4501C36.5482 27.7314 36.3901 28.1129 36.3901 28.5107Z" fill="url(#paint3_linear_206_9279)"/>
<defs>
<linearGradient id="paint0_linear_206_9279" x1="12.9399" y1="32.0003" x2="51.0599" y2="32.0003" gradientUnits="userSpaceOnUse">
<stop stop-color="#FD2411"/>
<stop offset="0.31" stop-color="#DE170C"/>
<stop offset="0.76" stop-color="#B70606"/>
<stop offset="1" stop-color="#A80004"/>
</linearGradient>
<linearGradient id="paint1_linear_206_9279" x1="98.4407" y1="846.993" x2="107.441" y2="846.993" gradientUnits="userSpaceOnUse">
<stop stop-color="#FD2411"/>
<stop offset="0.31" stop-color="#DE170C"/>
<stop offset="0.76" stop-color="#B70606"/>
<stop offset="1" stop-color="#A80004"/>
</linearGradient>
<linearGradient id="paint2_linear_206_9279" x1="122.001" y1="846.993" x2="131.001" y2="846.993" gradientUnits="userSpaceOnUse">
<stop stop-color="#FD2411"/>
<stop offset="0.31" stop-color="#DE170C"/>
<stop offset="0.76" stop-color="#B70606"/>
<stop offset="1" stop-color="#A80004"/>
</linearGradient>
<linearGradient id="paint3_linear_206_9279" x1="145.56" y1="846.625" x2="154.56" y2="846.625" gradientUnits="userSpaceOnUse">
<stop stop-color="#FD2411"/>
<stop offset="0.31" stop-color="#DE170C"/>
<stop offset="0.76" stop-color="#B70606"/>
<stop offset="1" stop-color="#A80004"/>
</linearGradient>
</defs>
</svg>
