<?xml version="1.0" encoding="UTF-8" standalone="no"?> <svg width="64" height="64" viewBox="0 0 64 64" fill="none" xmlns="http://www.w3.org/2000/svg">
<path d="M50.2901 8.61011H26.0001C25.6023 8.61011 25.2207 8.76814 24.9394 9.04945C24.6581 9.33075 24.5001 9.71228 24.5001 10.1101C24.5001 10.5079 24.6581 10.8895 24.9394 11.1708C25.2207 11.4521 25.6023 11.6101 26.0001 11.6101H50.2901C50.8324 11.6101 51.3695 11.7169 51.8706 11.9245C52.3716 12.132 52.8269 12.4363 53.2104 12.8198C53.5939 13.2033 53.8981 13.6586 54.1057 14.1596C54.3132 14.6607 54.4201 15.1977 54.4201 15.7401V50.3201C54.4201 50.8625 54.3132 51.3995 54.1057 51.9006C53.8981 52.4017 53.5939 52.857 53.2104 53.2405C52.8269 53.624 52.3716 53.9282 51.8706 54.1357C51.3695 54.3433 50.8324 54.4501 50.2901 54.4501H15.7101C15.1677 54.4501 14.6307 54.3433 14.1296 54.1357C13.6285 53.9282 13.1732 53.624 12.7897 53.2405C12.4062 52.857 12.102 52.4017 11.8945 51.9006C11.6869 51.3995 11.5801 50.8625 11.5801 50.3201V26.0601C11.5801 25.6623 11.422 25.2808 11.1407 24.9994C10.8594 24.7181 10.4779 24.5601 10.0801 24.5601C9.68225 24.5601 9.30072 24.7181 9.01942 24.9994C8.73811 25.2808 8.58008 25.6623 8.58008 26.0601V50.3201C8.58272 52.2103 9.33477 54.0223 10.6713 55.3589C12.0079 56.6954 13.8199 57.4475 15.7101 57.4501H50.2901C52.1803 57.4475 53.9923 56.6954 55.3288 55.3589C56.6654 54.0223 57.4174 52.2103 57.4201 50.3201V15.7401C57.4174 13.8499 56.6654 12.0379 55.3288 10.7014C53.9923 9.3648 52.1803 8.61275 50.2901 8.61011V8.61011Z" fill="url(#paint0_linear)"/>
<path d="M34.87 43.77C35.0085 43.9177 35.1798 44.0308 35.37 44.1L46.81 48.73C47.0826 48.8391 47.3813 48.8658 47.6689 48.8068C47.9565 48.7478 48.2205 48.6057 48.4281 48.3981C48.6357 48.1905 48.7779 47.9265 48.8369 47.6388C48.8959 47.3512 48.8691 47.0526 48.76 46.78L44.13 35.34C44.0608 35.1497 43.9477 34.9785 43.8 34.84L21.15 12.18C18.22 9.37999 14.51 3.87999 10.09 7.99999C3.36004 13.82 7.40004 16.35 12.21 21.15L34.87 43.77ZM10.12 12.19L12.22 10.09C12.3893 9.91856 12.591 9.78245 12.8133 9.68955C13.0356 9.59665 13.2741 9.54881 13.515 9.54881C13.756 9.54881 13.9945 9.59665 14.2168 9.68955C14.4391 9.78245 14.6407 9.91856 14.81 10.09L18 13.24L13.3 17.94L10.15 14.78C9.97663 14.6127 9.83817 14.4126 9.74268 14.1914C9.6472 13.9702 9.59659 13.7322 9.5938 13.4913C9.59101 13.2503 9.63609 13.0112 9.72643 12.7879C9.81676 12.5645 9.95055 12.3613 10.12 12.19V12.19Z" fill="url(#paint1_linear)"/>
<defs>
<linearGradient id="paint0_linear" x1="8.57008" y1="33.0301" x2="57.4201" y2="33.0301" gradientUnits="userSpaceOnUse">
<stop stop-color="#BB3590"/>
<stop offset="0.15" stop-color="#C14B98"/>
<stop offset="0.73" stop-color="#D89EB5"/>
<stop offset="1" stop-color="#E1BFC1"/>
</linearGradient>
<linearGradient id="paint1_linear" x1="283.391" y1="1177.43" x2="2075.34" y2="1177.43" gradientUnits="userSpaceOnUse">
<stop stop-color="#BB3590"/>
<stop offset="0.15" stop-color="#C14B98"/>
<stop offset="0.73" stop-color="#D89EB5"/>
<stop offset="1" stop-color="#E1BFC1"/>
</linearGradient>
</defs>
</svg>
